<svg xmlns="http://www.w3.org/2000/svg" viewBox="0 0 24 24" width="24" height="24">
	<style>
		tspan { white-space:pre }
		.shp0 { fill: none } 
		.shp1 { fill: #30526d } 
	</style>
	<path id="Layer" class="shp0" d="M0 0L24 0L24 24L0 24L0 0Z" />
	<path id="Layer" class="shp1" d="M22 12C22 6.48 17.52 2 12 2C6.48 2 2 6.48 2 12C2 16.84 5.44 20.87 10 21.8L10 15L8 15L8 12L10 12L10 9.5C10 7.57 11.57 6 13.5 6L16 6L16 9L14 9C13.45 9 13 9.45 13 10L13 12L16 12L16 15L13 15L13 21.95C18.05 21.45 22 17.19 22 12Z" />
</svg>